PathFileType	4	(X/Y/Z)	C:/Users/beibeiliu/ov580/test_trc/User1\sequence.11_training_dense_left.trc
DataRate	CameraRate	NumFrames	NumMarkers	Units	OrigDataRate	OrigDataStartFrame	OrigNumFrames
120	120	10	19	mm	120	27	52
Frame#	Time	ThumbCMC			ThumbMCP			ThumbIP			ThumbTip			IndexMCP			IndexPIP			IndexTip			MiddleMCP			MiddlePIP			MiddleTip			RingMCP			RingPIP			RingTip			PinkyMCP			PinkyPIP			PinkyTip			BackHand1			BackHand2			BackHand3	
		X0	Y0	Z0	X1	Y1	Z1	X2	Y2	Z2	X3	Y3	Z3	X4	Y4	Z4	X5	Y5	Z5	X6	Y6	Z6	X7	Y7	Z7	X8	Y8	Z8	X9	Y9	Z9	X10	Y10	Z10	X11	Y11	Z11	X12	Y12	Z12	X13	Y13	Z13	X14	Y14	Z14	X15	Y15	Z15	X16	Y16	Z16	X17	Y17	Z17	X18	Y18	Z18	
26	0.216667	-114.066	60.3914	135.368	-83.9521	42.0533	115.103	-85.3736	21.222	92.6786	-98.912	-1.66848	84.1638	-103.405	52.4719	52.4307	-95.7941	38.9497	30.263	-85.0589	26.8021	11.4471	-128.183	29.0222	37.9433	-113.628	20.7558	18.5022	-104.141	6.37435	-4.54961	-126.719	3.28611	52.8774	-103.909	-16.1829	70.383	-108.739	-4.7807	103.328	-143.684	-13.1978	75.82	-120.753	-14.723	96.3549	-122.022	5.03959	119.385	-169.325	34.2743	90.3454	-185.185	44.0496	125.409	-150.009	64.4057	112.037	
27	0.225	-140.24	78.5237	121.771	-102.267	80.7512	104.109	-89.1835	55.4397	82.4809	-85.9044	25.131	81.3444	-126.335	55.1563	42.3145	-109.393	49.0388	18.5255	-95.587	33.8329	3.2536	-128.179	28.399	33.8185	-112.143	16.9403	15.6182	-90.5825	8.6065	-6.77891	-116.246	6.01671	56.8052	-85.854	9.08319	76.4704	-95.7562	20.0004	103.557	-119.905	-9.7856	81.8612	-99.8855	3.97398	97.0644	-114.574	25.362	118.017	-167.549	23.8284	91.7114	-185.166	26.7864	123.858	-169.256	57.2353	99.8706	
28	0.233333	-169.305	84.3082	106.514	-139.865	95.3258	87.662	-116.718	79.1476	71.1009	-99.3515	57.2732	72.4175	-151.334	49.448	30.6024	-136.938	43.6597	10.5828	-116.609	35.2991	-12.2954	-140.866	25.8193	32.9538	-119.31	20.988	9.14564	-98.0558	16.0067	-6.15694	-113.574	20.1229	53.0002	-89.534	40.8513	65.203	-101.575	51.3555	92.6308	-111.212	9.47156	77.7856	-95.9581	32.116	92.9508	-118.424	45.9378	112.268	-164.952	9.99431	91.1108	-182.646	17.4493	127.276	-186.593	44.0421	98.487	
29	0.241667	-187.338	79.5104	107.168	-164.351	92.9646	78.0444	-141.424	87.9353	56.8314	-116.886	65.9981	56.6626	-179.067	40.5241	30.9535	-170.777	36.698	4.12326	-156.103	33.3022	-22.0522	-159.126	15.9991	28.8384	-143.897	16.0825	3.7903	-123.404	16.3449	-21.9792	-131.273	22.8661	44.858	-108.92	47.0634	50.3525	-114.782	57.9187	80.4503	-122.742	16.4301	68.2167	-108.762	42.5244	77.3739	-129.729	52.4423	99.7565	-173.831	11.2211	94.8127	-181.956	14.8248	127.167	-198.324	37.5715	101.211	
30	0.25	-193.544	73.0634	103.535	-175.495	89.5998	70.3902	-158.073	77.9142	52.2163	-137.643	54.2848	46.1919	-208.399	36.6148	28.5958	-202.921	27.0203	7.2225	-192.329	20.1078	-23.8551	-189.302	8.26605	31.7731	-180.236	1.63828	1.06661	-165.017	-1.0447	-24.7056	-154.363	12.6514	36.2917	-127.97	35.1306	38.9344	-133.405	52.6011	66.2914	-140.12	6.82517	58.9914	-124.49	29.7995	62.607	-139.721	47.9412	90.9521	-187.173	1.68528	93.2169	-189.328	10.5406	129.932	-208.616	33.5851	104.052	
31	0.258333	-189.953	75.9394	105.03	-169.803	87.1329	68.521	-159.928	70.954	47.9283	-143.623	43.7759	36.8039	-217.985	39.5328	30.7517	-218.92	34.3516	6.40837	-211.874	25.7479	-21.994	-211.2	10.8753	28.19	-207.173	2.99831	0.201375	-198.984	-4.38093	-29.3581	-173.855	3.37156	36.6421	-146.783	19.239	29.2305	-140.582	37.8095	58.7133	-159.71	-6.37549	57.5459	-135.676	15.8334	56.788	-142.194	36.1336	79.0756	-202.714	5.28279	94.1393	-199.411	14.9996	130.058	-214.472	44.1533	103.298	
32	0.266667	-171.916	77.079	106.691	-149.877	79.2679	73.6806	-144.463	62.847	47.3322	-145.391	32.4615	39.4481	-206.513	63.1661	33.5176	-207.203	53.3959	4.39549	-201.713	42.4555	-21.8128	-213.555	31.2321	29.6672	-214.479	24.5068	0.409678	-208.771	17.2626	-29.789	-188.198	12.3536	32.618	-155.627	11.227	26.1012	-144.275	23.009	56.2462	-175.459	-7.71786	54.1064	-149.083	6.80477	53.518	-148.251	26.2249	80.5868	-212.72	18.7277	90.775	-207.341	24.7908	127.98	-207.391	53.0433	105.25	
33	0.275	-136.974	61.8922	116.605	-118.146	50.3465	80.7517	-126.528	36.2905	50.9336	-141.918	16.7881	41.3928	-167.848	75.2798	37.9409	-168.698	70.9413	9.47872	-164.811	60.6199	-17.54	-192.329	64.7862	29.7024	-195.402	62.5869	3.18364	-195.183	57.7819	-25.8136	-186.042	31.1656	31.0173	-163.258	10.5601	26.3893	-151.278	8.45425	59.7651	-190.365	4.20049	48.9605	-163.36	-0.982186	54.4791	-150.491	6.97179	82.1848	-204.244	49.0453	91.1127	-203.933	45.1698	124.784	-182.272	69.4729	109.359	
34	0.283333	-122.45	37.9625	123.724	-104.424	19.0334	89.9747	-116.322	11.0165	62.7286	-140.572	0.918197	48.1594	-134.209	63.6989	44.2059	-133.847	55.7085	12.0569	-134.35	45.706	-8.57236	-165.759	67.0731	34.0905	-168.999	65.7447	5.8659	-169.913	62.4269	-25.3522	-177.401	32.5365	36.1943	-158.267	3.07738	31.2439	-152.577	-4.28987	65.0993	-192.303	13.6643	55.7137	-167.723	-7.95838	59.2274	-152.904	-2.21995	86.9298	-185.852	55.2083	95.7568	-189.669	49.4721	132.924	-158.858	63.1793	114.991	
35	0.291667	-115.689	33.1422	132.351	-98.0058	14.0867	98.4996	-106.892	2.72725	74.333	-129.253	-10.5779	59.9709	-119.419	51.6891	46.4432	-112.316	41.2195	17.8317	-112.762	28.2112	-1.70851	-154.133	49.2562	33.5818	-148.158	45.3717	6.60889	-146.109	39.3059	-22.0607	-164.266	16.9514	39.8564	-145.135	-13.1174	41.7138	-140.353	-14.5934	73.256	-177.173	-2.58487	57.3973	-155.287	-19.114	70.3577	-146.089	-11.3699	97.0072	-180.393	47.4656	92.9194	-186.602	46.745	130.189	-151.736	56.0714	117.787	
